<svg width="24" height="24" viewBox="0 0 24 24" fill="none" xmlns="http://www.w3.org/2000/svg">
<path fill-rule="evenodd" clip-rule="evenodd" d="M2.25 5C2.25 3.48122 3.48122 2.25 5 2.25H19C20.5188 2.25 21.75 3.48122 21.75 5V19C21.75 20.5188 20.5188 21.75 19 21.75H5C3.48122 21.75 2.25 20.5188 2.25 19V5ZM6 4.5C5.30964 4.5 4.5 5.30964 4.5 6C4.5 6.69036 4.5 17.3096 4.5 18C4.5 18.6904 5.30964 19.5 6 19.5H18C18.6904 19.5 19.5 18.6904 19.5 18C19.5 18 19.5 6.69036 19.5 6C19.5 5.30964 18.6904 4.5 18 4.5H6Z" stroke="#059669" stroke-width="1.2"/>
<circle cx="7" cy="13" r="0.5" stroke="#059669"/>
</svg>
