<svg width="24" height="24" viewBox="0 0 24 24" fill="none" xmlns="http://www.w3.org/2000/svg">
<path d="M17 16.2454L16.5309 15.6602L16.25 15.8854V16.2454H17ZM7 16.2454H7.75V15.8854L7.4691 15.6602L7 16.2454ZM7 21H6.25V21.75H7V21ZM17 21V21.75H17.75V21H17ZM19.25 10C19.25 12.2892 18.1899 14.3303 16.5309 15.6602L17.4691 16.8306C19.468 15.2282 20.75 12.7636 20.75 10H19.25ZM12 2.75C16.0041 2.75 19.25 5.99594 19.25 10H20.75C20.75 5.16751 16.8325 1.25 12 1.25V2.75ZM4.75 10C4.75 5.99594 7.99594 2.75 12 2.75V1.25C7.16751 1.25 3.25 5.16751 3.25 10H4.75ZM7.4691 15.6602C5.81011 14.3303 4.75 12.2892 4.75 10H3.25C3.25 12.7636 4.53204 15.2282 6.5309 16.8306L7.4691 15.6602ZM7.75 21V16.2454H6.25V21H7.75ZM17 20.25H7V21.75H17V20.25ZM16.25 16.2454V21H17.75V16.2454H16.25Z" fill="#059669"/>
<path d="M7 16.5H17" stroke="#059669" stroke-width="1.5"/>
<path d="M3 21H21" stroke="#059669" stroke-width="1.5"/>
</svg>
