<svg width="24" height="24" viewBox="0 0 24 24" fill="none" xmlns="http://www.w3.org/2000/svg">
<g clip-path="url(#clip0)">
<mask id="path-1-inside-1" fill="white">
<path fill-rule="evenodd" clip-rule="evenodd" d="M2.72689 15.75H21.2731C21.6038 14.9329 21.8297 14.0622 21.9341 13.1544C19.9286 9.47094 16.2304 7 12 7C7.76957 7 4.07135 9.47098 2.06592 13.1545C2.17027 14.0622 2.39615 14.9329 2.72689 15.75ZM12 32C8.22855 32 4.8801 30.0361 2.77696 27H21.2231C19.1199 30.0361 15.7715 32 12 32Z"/>
</mask>
<path d="M2.72689 15.75L1.33648 16.3128L1.71584 17.25H2.72689V15.75ZM21.2731 15.75V17.25H22.2841L22.6635 16.3128L21.2731 15.75ZM21.9341 13.1544L23.4243 13.3257L23.4785 12.8541L23.2515 12.4372L21.9341 13.1544ZM2.06592 13.1545L0.748508 12.4373L0.521517 12.8542L0.575732 13.3258L2.06592 13.1545ZM2.77696 27V25.5H-0.0868346L1.5439 27.8542L2.77696 27ZM21.2231 27L22.4561 27.8542L24.0869 25.5H21.2231V27ZM2.72689 17.25H21.2731V14.25H2.72689V17.25ZM22.6635 16.3128C23.0443 15.3721 23.3043 14.3698 23.4243 13.3257L20.4439 12.9831C20.3552 13.7546 20.1634 14.4937 19.8827 15.1872L22.6635 16.3128ZM23.2515 12.4372C21.0153 8.32981 16.8434 5.5 12 5.5V8.5C15.6175 8.5 18.842 10.6121 20.6167 13.8717L23.2515 12.4372ZM12 5.5C7.1566 5.5 2.98472 8.32985 0.748508 12.4373L3.38333 13.8718C5.15799 10.6121 8.38254 8.5 12 8.5V5.5ZM0.575732 13.3258C0.695747 14.3698 0.955696 15.3721 1.33648 16.3128L4.1173 15.1872C3.83661 14.4938 3.64478 13.7546 3.5561 12.9832L0.575732 13.3258ZM1.5439 27.8542C3.89653 31.2504 7.68489 33.5 12 33.5V30.5C8.77222 30.5 5.86367 28.8218 4.01002 26.1459L1.5439 27.8542ZM21.2231 25.5H2.77696V28.5H21.2231V25.5ZM12 33.5C16.3152 33.5 20.1035 31.2504 22.4561 27.8542L19.99 26.1459C18.1364 28.8218 15.2278 30.5 12 30.5V33.5Z" fill="#059669" mask="url(#path-1-inside-1)"/>
<circle cx="12" cy="12" r="10" stroke="#059669" stroke-width="1.5"/>
</g>
<defs>
<clipPath id="clip0">
<rect width="24" height="24" fill="white"/>
</clipPath>
</defs>
</svg>
