<svg width="24" height="24" viewBox="0 0 24 24" fill="none" xmlns="http://www.w3.org/2000/svg">
<path d="M3.33783 8L2.68863 7.62446L2.03753 8.75H3.33783V8ZM20.6622 8V8.75H21.9625L21.3114 7.62446L20.6622 8ZM3.33783 8.75H20.6622V7.25H3.33783V8.75ZM3.98703 8.37554C5.58753 5.60876 8.57715 3.75 12 3.75V2.25C8.02005 2.25 4.54622 4.41323 2.68863 7.62446L3.98703 8.37554ZM12 3.75C15.4229 3.75 18.4125 5.60876 20.013 8.37554L21.3114 7.62446C19.4538 4.41323 15.98 2.25 12 2.25V3.75Z" fill="#059669"/>
<path d="M9.19476 8.28003C9.50366 8.09673 9.85622 8 10.2154 8H13.7846C14.1438 8 14.4963 8.09673 14.8052 8.28003L18.0206 10.1881C18.6278 10.5484 19 11.202 19 11.908V16.092C19 16.798 18.6278 17.4516 18.0206 17.8119L14.8052 19.72C14.4963 19.9033 14.1438 20 13.7846 20H10.2154C9.85621 20 9.50366 19.9033 9.19476 19.72L5.97936 17.8119C5.37222 17.4516 5 16.798 5 16.092V11.908C5 11.202 5.37222 10.5484 5.97936 10.1881L9.19476 8.28003Z" stroke="#059669" stroke-width="1.5"/>
<rect x="2" y="20" width="20" height="2" rx="1" stroke="#059669" stroke-width="1.5"/>
</svg>
