<svg width="22" height="18" viewBox="0 0 22 18" fill="none" xmlns="http://www.w3.org/2000/svg">
<path fill-rule="evenodd" clip-rule="evenodd" d="M7.30009 0.25C6.69795 0.25 6.11244 0.447635 5.63348 0.812563L3.54547 2.40343L3.41871 2.5H2C1.17157 2.5 0.5 3.17157 0.5 4V14C0.5 14.8284 1.17157 15.5 2 15.5H3.41871L3.54547 15.5966L5.63348 17.1874C6.11244 17.5524 6.69795 17.75 7.30009 17.75H14.3423C14.8763 17.75 15.3988 17.5945 15.846 17.3025L18.4101 15.628L18.606 15.5H20C20.8284 15.5 21.5 14.8284 21.5 14V4C21.5 3.17157 20.8284 2.5 20 2.5H18.606L18.4101 2.37205L15.846 0.697506C15.3988 0.405497 14.8763 0.25 14.3423 0.25H7.30009ZM18.75 14.5V3.5H20C20.2761 3.5 20.5 3.72386 20.5 4V14C20.5 14.2761 20.2761 14.5 20 14.5H18.75ZM3.25 3.5V14.5H2C1.72386 14.5 1.5 14.2761 1.5 14V4C1.5 3.72386 1.72386 3.5 2 3.5H3.25ZM6.54254 2.00571C6.76025 1.83983 7.02639 1.75 7.30009 1.75H14.3423C14.585 1.75 14.8225 1.82068 15.0258 1.95341L17.25 3.40597V14.594L15.0258 16.0466C14.8225 16.1793 14.585 16.25 14.3423 16.25H7.30009C7.02639 16.25 6.76025 16.1602 6.54254 15.9943L4.75 14.6285V3.37146L6.54254 2.00571Z" fill="#059669"/>
</svg>
