<svg width="24" height="24" viewBox="0 0 24 24" fill="none" xmlns="http://www.w3.org/2000/svg">
<path fill-rule="evenodd" clip-rule="evenodd" d="M5 2.25C3.48122 2.25 2.25 3.48122 2.25 5V19C2.25 20.5188 3.48122 21.75 5 21.75H19C20.5188 21.75 21.75 20.5188 21.75 19V5C21.75 3.48122 20.5188 2.25 19 2.25H5ZM3.75 5C3.75 4.30964 4.30964 3.75 5 3.75H11.25V5.2912C8.12129 5.63706 5.63706 8.12129 5.2912 11.25H3.75V5ZM11.25 6.80317C8.95073 7.13205 7.13205 8.95073 6.80317 11.25H11.25V6.80317ZM12.75 11.25V6.80317C15.0493 7.13205 16.8679 8.95073 17.1968 11.25H12.75ZM11.25 12.75H6.80317C7.13205 15.0493 8.95073 16.8679 11.25 17.1968V12.75ZM12.75 17.1968V12.75H17.1968C16.8679 15.0493 15.0493 16.8679 12.75 17.1968ZM11.25 18.7088C8.12129 18.3629 5.63706 15.8787 5.2912 12.75H3.75V19C3.75 19.6904 4.30964 20.25 5 20.25H11.25V18.7088ZM12.75 20.25V18.7088C15.8787 18.3629 18.3629 15.8787 18.7088 12.75H20.25V19C20.25 19.6904 19.6904 20.25 19 20.25H12.75ZM12.75 5.2912V3.75H19C19.6904 3.75 20.25 4.30964 20.25 5V11.25H18.7088C18.3629 8.12129 15.8787 5.63706 12.75 5.2912Z" fill="#059669"/>
</svg>
