<svg width="24" height="24" viewBox="0 0 24 24" fill="none" xmlns="http://www.w3.org/2000/svg">
<path d="M2 3V2.25H1.25V3H2ZM2 11H1.25V11.75H2V11ZM4.05493 11V11.75H4.72659L4.80039 11.0824L4.05493 11ZM2 3.75H13V2.25H2V3.75ZM2.75 11V3H1.25V11H2.75ZM4.05493 10.25H2V11.75H4.05493V10.25ZM4.80039 11.0824C5.25629 6.95825 8.754 3.75 13 3.75V2.25C7.9809 2.25 3.84846 6.04185 3.30947 10.9176L4.80039 11.0824Z" fill="#059669"/>
<circle cx="13" cy="12" r="9" stroke="#059669" stroke-width="1.5"/>
<circle cx="13" cy="12" r="6" stroke="#059669" stroke-width="1.5"/>
</svg>
