<svg width="24" height="24" viewBox="0 0 24 24" fill="none" xmlns="http://www.w3.org/2000/svg">
<path d="M8.89713 7.00047C7.41315 7.00047 6.1991 8.28386 6.1991 9.85346C6.1991 10.9285 6.7685 11.8696 7.60414 12.356C6.76853 12.8424 6.1991 13.7835 6.1991 14.8585C6.1991 16.4281 7.41315 17.7115 8.89713 17.7115C9.65217 17.7115 10.3372 17.3794 10.8283 16.8461L10.1138 16.1316C9.80465 16.4622 9.3749 16.6657 8.89713 16.6657C7.94831 16.6657 7.18771 15.8621 7.18771 14.8585C7.18771 13.8722 7.92266 13.0791 8.84865 13.0522L8.84547 13.0394H10.0526V12.4307V12.2813V11.6725H8.84547L8.84865 11.6598C7.92266 11.6329 7.18771 10.8398 7.18771 9.85346C7.18771 8.84989 7.94831 8.0463 8.89713 8.0463C9.3749 8.0463 9.80465 8.24975 10.1138 8.58034L10.8283 7.8659C10.3372 7.33259 9.65217 7.00047 8.89713 7.00047ZM12.1491 11.7973V12.8145H12.494C12.7089 12.8145 12.8114 12.8663 12.9072 13.0323L13.9189 14.787L12.8889 16.5735C12.7931 16.7395 12.6906 16.7913 12.4757 16.7913H12.1308V17.8085H12.4757C12.9798 17.8085 13.4978 17.5541 13.7703 17.0821L14.5062 15.8058L15.2429 17.0821C15.5153 17.5541 16.0334 17.8085 16.5374 17.8085H16.8823V16.7913H16.5374C16.3225 16.7913 16.22 16.7395 16.1242 16.5735L15.0942 14.787L16.1059 13.0323C16.2018 12.8663 16.3042 12.8145 16.5192 12.8145H16.8641V11.7973H16.5192C16.0151 11.7973 15.4971 12.0517 15.2246 12.5237L14.5062 13.769L13.7885 12.5237C13.5161 12.0517 12.9981 11.7973 12.494 11.7973H12.1491Z" fill="#059669" stroke="#059669" stroke-width="0.7"/>
<path d="M17.1807 21L6.79609 20.9866L1.61542 11.9866L6.81931 3L17.2039 3.01341L22.3845 12.0134L17.1807 21Z" stroke="#059669" stroke-width="1.5" stroke-linecap="round"/>
</svg>
